<svg width="300" height="300" xmlns="http://www.w3.org/2000/svg">
 <!-- Created with Method Draw - http://github.com/duopixel/Method-Draw/ -->
 <g>
  <title>background</title>
  <rect fill="#fff" id="canvas_background" height="302" width="302" y="-1" x="-1"/>
  <g display="none" overflow="visible" y="0" x="0" height="100%" width="100%" id="canvasGrid">
   <rect fill="url(#gridpattern)" stroke-width="0" y="0" x="0" height="100%" width="100%"/>
  </g>
 </g>
 <g>
  <title>Layer 1</title>
  <path d="m5.5,160.4375c1,0 2.346189,-1.70546 4,-4c2.614903,-3.627991 5,-7 5,-8c0,-1 1.513008,-1.593994 3,-4c3.325016,-5.37999 4.371344,-10.74675 7,-15c1.175571,-1.902115 1.418861,-3.418861 3,-5c3.162277,-3.162277 3.194092,-6.888557 6,-12c1.076015,-1.960152 0.710217,-3.042908 1,-4c1.04483,-3.450844 4.171574,-8 7,-8c1.414215,0 3.851143,2.485313 6,7c1.771996,3.722908 4.88052,4.957832 7,11c1.324028,3.774513 2.525284,6.084419 4,13c1.518311,7.120026 4.343151,13.876053 6,19c1.268555,3.923111 1.81089,6.018051 2,7c1.018372,5.287994 3.410698,11.854706 5,17c2.720932,8.808884 2.434624,15.150986 5,17c0.811241,0.584717 3.380417,-14.903259 6,-26c2.343033,-9.925232 3.883896,-19.496368 7,-25c4.542458,-8.022842 8.382576,-14.302124 14,-25c5.421638,-10.325012 9.428238,-20.423347 14,-26c0.896599,-1.093674 1.076118,-2.382683 2,-2c1.306564,0.541199 2.465515,3.838089 4,9c1.45295,4.887634 3.236305,12.93676 5,20c3.468658,13.891312 7.604187,24.280518 11,34c2.006271,5.742371 3,9 3,11c0,1 0.303223,1.769348 1,3c2.031448,3.587921 1.415894,5.238922 3,2c1.389359,-2.840729 4.798615,-21.044525 6,-26c3.430557,-14.150314 4.881332,-18.025208 6,-23c0.904556,-4.022659 4.344574,-7.742828 8,-13c3.328781,-4.787399 4.458801,-6.693436 5,-8c0.38269,-0.923882 0.274307,-2.884964 1,-5c1.654816,-4.823029 2.423584,-8.230827 4,-7c9.749557,7.612228 6.379517,26.237366 12,40c5.413208,13.255081 7.741058,22.726959 10,30c1.512436,4.869553 3.486252,8.823746 4,11c0.919006,3.89299 0.458801,4.693436 1,6c0.765366,1.847763 1.514801,-5.072723 4,-20c2.512177,-15.089371 7.465515,-26.838089 9,-32c1.452942,-4.887634 1.633453,-8.022476 2,-11c1.511322,-12.276642 7.750153,-29.462593 11,-32c0.788208,-0.61541 0.71666,0.167503 2,5c2.069321,7.792168 10.264694,20.699013 13,35c1.887985,9.870941 1.847229,17.041321 3,21c0.88414,3.036163 3.493454,7.878555 4,11c0.480545,2.961258 -0.459503,4.053497 0,6c0.513748,2.176254 2.332687,3.753128 3,5c2.406006,4.495682 4.562866,10.630341 9,18c1.153381,1.915649 1,-1 1,-3c0,-5 -0.718445,-12.032318 0,-20c1.004059,-11.135162 3.995941,-17.864838 5,-29c0.628632,-6.971718 1.25,-16.115318 3,-25c1.406921,-7.142868 3,-12 5,-14c2,-2 2,-3 5,-7l1,0" id="svg_1" stroke-width="1.5" stroke="#000" fill="none"/>
 </g>
</svg>